<svg width="120" height="60" viewBox="0 0 120 60" fill="none" xmlns="http://www.w3.org/2000/svg">
<path d="M18.027 44.746V41.966H20.027V44.746H21.639V46.358H20.027V51.092C20.027 51.538 20.233 51.675 20.747 51.675C21.047 51.675 21.364 51.572 21.639 51.503V53.15L20.061 53.287C18.586 53.287 18.037 52.532 18.037 51.367V46.393H16.905V44.781L18.027 44.746ZM24.58 49.24C24.614 50.955 25.38 51.64 26.295 51.64C27.21 51.64 27.633 51.228 28.147 50.645L29.587 51.537C28.832 52.737 27.7 53.252 26.122 53.252C23.962 53.252 22.622 51.572 22.622 48.93C22.622 46.288 23.96 44.608 26.224 44.608C28.384 44.608 29.62 46.426 29.62 48.45V49.273H24.577L24.58 49.24ZM27.78 47.902C27.746 46.736 27.128 46.084 26.202 46.084C25.242 46.084 24.658 46.77 24.624 47.902H27.78ZM36.003 47.457C35.703 46.737 35.351 46.187 34.356 46.187C33.258 46.187 32.744 47.045 32.744 48.931C32.744 50.783 33.259 51.631 34.424 51.631C35.282 51.631 35.762 51.048 36.174 50.293L37.674 51.151C36.874 52.626 35.856 53.244 34.346 53.244C32.116 53.244 30.744 51.564 30.744 48.922C30.744 46.28 32.082 44.6 34.346 44.6C35.924 44.6 37.159 45.423 37.606 46.83L36.003 47.457ZM39.16 53.083V41.488H41.16V45.638C41.778 45.123 42.567 44.575 43.527 44.575C45.174 44.575 45.997 45.673 45.997 47.355V53.085H43.997V47.665C43.997 46.533 43.654 46.19 42.967 46.19C42.109 46.19 41.467 46.705 41.115 47.082V53.12H39.16V53.083ZM48 53.083V44.747H49.818V45.639C50.538 45.124 51.396 44.576 52.358 44.576C54.005 44.576 54.794 45.674 54.794 47.356V53.086H52.839V47.666C52.839 46.534 52.496 46.191 51.809 46.191C50.951 46.191 50.309 46.706 49.957 47.083V53.121H48V53.083ZM59.8 44.575C62.064 44.575 63.402 46.255 63.402 48.897C63.402 51.539 62.064 53.219 59.8 53.219C57.536 53.219 56.198 51.539 56.198 48.897C56.232 46.255 57.57 44.575 59.8 44.575ZM59.8 46.187C58.702 46.187 58.188 47.045 58.188 48.931C58.188 50.783 58.703 51.631 59.8 51.631C60.897 51.631 61.412 50.773 61.412 48.931C61.446 47.044 60.897 46.187 59.8 46.187ZM65.026 53.083V41.488H66.981V53.083H65.026ZM72.196 44.575C74.46 44.575 75.798 46.255 75.798 48.897C75.798 51.539 74.46 53.219 72.196 53.219C69.932 53.219 68.594 51.539 68.594 48.897C68.628 46.255 69.966 44.575 72.196 44.575ZM72.196 46.187C71.098 46.187 70.584 47.045 70.584 48.931C70.584 50.783 71.099 51.631 72.196 51.631C73.293 51.631 73.808 50.773 73.808 48.931C73.842 47.044 73.328 46.187 72.196 46.187ZM83.962 45.947C83.516 45.947 83.002 45.947 82.692 46.153C82.966 46.496 83.138 46.976 83.138 47.628C83.138 49.206 82.075 50.328 80.016 50.328C79.158 50.328 78.472 50.362 78.472 50.843C78.472 52.181 83.927 50.363 83.927 53.69C83.927 54.89 82.727 56.16 80.085 56.16C77.855 56.16 76.38 55.474 76.38 54.16C76.3714 53.9608 76.4031 53.7618 76.4733 53.5752C76.5435 53.3885 76.6507 53.2179 76.7885 53.0737C76.9262 52.9295 77.0917 52.8146 77.275 52.736C77.4583 52.6573 77.6556 52.6165 77.855 52.616V52.546C77.478 52.306 76.62 52.1 76.62 51.208C76.62 50.408 77.546 49.801 77.924 49.708C77.238 49.158 76.689 48.508 76.689 47.512C76.689 46.037 77.787 44.596 79.949 44.596C80.635 44.596 81.493 44.896 81.973 45.351C82.35 44.836 82.968 44.551 83.928 44.596V45.934L83.962 45.947ZM78.199 53.907C78.199 54.525 78.749 54.833 80.395 54.833C81.665 54.833 82.11 54.181 82.11 53.907C82.11 53.53 81.527 52.947 79.606 52.947C78.508 52.947 78.199 53.53 78.199 53.907ZM79.949 46.051C79.091 46.051 78.509 46.668 78.509 47.423C78.509 48.178 79.092 48.795 79.949 48.795C80.704 48.795 81.287 48.178 81.287 47.423C81.321 46.668 80.704 46.051 79.949 46.051ZM85.369 43.203V41.351H87.324V43.203H85.369ZM87.369 50.647V53.117H85.414V44.781H87.369V50.647ZM90.926 49.24C90.96 50.955 91.726 51.64 92.641 51.64C93.556 51.64 93.979 51.228 94.493 50.645L95.933 51.537C95.178 52.737 94.046 53.252 92.468 53.252C90.308 53.252 88.968 51.572 88.968 48.93C88.968 46.288 90.306 44.608 92.57 44.608C94.73 44.608 95.966 46.426 95.966 48.45V49.273H90.923L90.926 49.24ZM94.126 47.902C94.092 46.736 93.474 46.084 92.514 46.084C91.554 46.084 90.936 46.77 90.936 47.902H94.126ZM101.596 46.942C101.184 46.496 100.67 46.05 100.052 46.05C99.297 46.05 98.954 46.35 98.954 46.873C98.954 48.313 103.104 47.696 103.104 50.75C103.104 52.465 101.8 53.254 100.051 53.254C99.4298 53.2671 98.8158 53.1191 98.2687 52.8246C97.7216 52.53 97.2601 52.0988 96.929 51.573L98.267 50.578C98.713 51.23 99.33 51.778 100.187 51.778C100.873 51.778 101.353 51.401 101.353 50.818C101.353 49.411 97.203 49.926 97.203 47.01C97.203 45.466 98.507 44.574 99.947 44.574C101.045 44.574 102.143 44.986 102.863 45.844L101.596 46.942ZM73.983 28.604C72.911 30.259 71.186 31.284 69.275 31.284C66.675 31.284 64.497 30.084 64.497 27.276C64.497 23.104 70.58 21.636 75.241 21.356V22.591C75.264 25.294 75.218 26.739 73.983 28.604V28.604ZM65.313 13.619C66.013 11.731 67.9 10.916 70.463 10.916C74.123 10.916 75.171 13.48 75.217 15.6L75.24 16.625C65.126 17.125 55.617 19.002 55.804 28.255C55.944 34.735 61.804 37.391 65.824 37.367C70.508 37.367 73.118 36.109 75.704 32.917C75.751 34.269 75.904 35.69 76.147 36.739H85.213C84.7 35.154 84.583 33.569 84.583 31.915V15.1C84.583 11.022 83.813 8.73803 81.623 6.75703C79.549 4.86903 76.146 3.82104 71.555 3.82104C67.36 3.82104 63.748 4.77704 61.091 6.59404C63.291 8.31904 64.727 10.719 65.309 13.609L65.313 13.619ZM55.293 27.905V28.745C55.433 32.045 57.041 34.105 58.533 35.34C56.016 36.785 53.033 37.39 50.353 37.39C40.565 37.39 34.785 30.468 34.785 20.937C34.785 11.009 40.751 3.83104 50.935 3.83104C58.323 3.83104 64.382 7.74605 65.035 15.414H56.155C56.155 12.501 54.105 10.939 51.238 10.939C46.638 10.939 45.225 14.179 45.225 20.145C45.225 26.205 46.553 29.747 51.261 29.747C53.009 29.77 54.454 29.164 55.293 27.907V27.905Z" fill="#491414"/>
</svg>
