<svg xmlns="http://www.w3.org/2000/svg" xmlns:xlink="http://www.w3.org/1999/xlink" width="500" zoomAndPan="magnify" viewBox="0 0 375 374.999991" height="500" preserveAspectRatio="xMidYMid meet" version="1.0"><defs><clipPath id="id1"><path d="M 53 39.09375 L 338.507812 39.09375 L 338.507812 325 L 53 325 Z M 53 39.09375 " clip-rule="nonzero"/></clipPath><clipPath id="id2"><path d="M 36.257812 184 L 181 184 L 181 336.09375 L 36.257812 336.09375 Z M 36.257812 184 " clip-rule="nonzero"/></clipPath></defs><g clip-path="url(#id1)"><path fill="#1d5356" d="M 338.335938 181.777344 C 338.335938 260.5625 274.554688 324.433594 195.878906 324.433594 C 117.203125 324.433594 53.421875 260.5625 53.421875 181.777344 C 53.421875 102.992188 117.203125 39.121094 195.878906 39.121094 C 274.554688 39.121094 338.335938 102.992188 338.335938 181.777344 " fill-opacity="1" fill-rule="nonzero"/></g><g clip-path="url(#id2)"><path fill="#b4a500" d="M 132.957031 336.117188 C 79.597656 336.117188 36.34375 292.804688 36.34375 239.367188 C 36.34375 218.953125 42.664062 200.003906 53.449219 184.394531 C 54.75 256.792969 109.90625 316.027344 180.5 323.613281 C 166.464844 331.574219 150.242188 336.117188 132.957031 336.117188 " fill-opacity="1" fill-rule="nonzero"/></g><path fill="#fff200" d="M 180.5 323.613281 C 109.90625 316.027344 54.75 256.792969 53.449219 184.394531 C 70.878906 159.152344 99.988281 142.621094 132.957031 142.621094 C 140.273438 142.621094 147.40625 143.433594 154.257812 144.980469 C 95.476562 182.410156 107.554688 257.710938 107.554688 257.710938 C 125.238281 265.242188 141.453125 268.546875 156.320312 268.546875 C 185.863281 268.546875 210.019531 255.480469 229.527344 236.511719 C 229.554688 237.460938 229.570312 238.414062 229.570312 239.367188 C 229.570312 275.496094 209.800781 306.996094 180.5 323.613281 " fill-opacity="1" fill-rule="nonzero"/><path fill="#d5c409" d="M 229.527344 236.511719 C 229.03125 219.296875 224.042969 203.210938 215.691406 189.382812 C 221.835938 184.53125 227.703125 179.335938 233.628906 174.414062 C 239.535156 169.199219 245.136719 163.832031 250.621094 158.71875 C 255.890625 153.363281 260.964844 148.175781 265.648438 143.140625 C 270.167969 137.933594 274.371094 132.964844 278.234375 128.378906 C 281.863281 123.578125 285.046875 119.082031 287.882812 115.121094 C 290.855469 111.261719 292.796875 107.429688 294.660156 104.480469 C 298.234375 98.46875 300.179688 95.011719 300.179688 95.011719 C 300.179688 95.011719 281.105469 186.367188 229.527344 236.511719 " fill-opacity="1" fill-rule="nonzero"/><path fill="#b4a500" d="M 156.320312 268.546875 C 141.453125 268.546875 125.238281 265.242188 107.554688 257.710938 C 107.554688 257.710938 111.195312 256.082031 117.394531 252.890625 C 123.582031 249.679688 132.414062 245.050781 142.769531 239.066406 C 147.898438 235.992188 153.53125 232.777344 159.304688 229.082031 C 165.089844 225.410156 171.253906 221.617188 177.398438 217.34375 C 183.617188 213.183594 189.992188 208.796875 196.304688 204.109375 C 202.71875 199.5625 208.953125 194.550781 215.300781 189.695312 C 215.429688 189.589844 215.5625 189.488281 215.691406 189.382812 C 224.042969 203.210938 229.03125 219.296875 229.527344 236.511719 C 210.019531 255.480469 185.863281 268.546875 156.320312 268.546875 " fill-opacity="1" fill-rule="nonzero"/><path fill="#d5c409" d="M 212.023438 183.753906 C 198.453125 164.445312 178.011719 150.332031 154.257812 144.980469 C 161.128906 140.601562 168.964844 136.746094 177.90625 133.589844 C 263.332031 103.394531 300.179688 95.011719 300.179688 95.011719 C 300.179688 95.011719 297.71875 98.171875 293.578125 103.753906 C 291.449219 106.503906 289.207031 110.070312 285.894531 113.617188 C 282.742188 117.265625 279.183594 121.386719 275.308594 125.878906 C 271.164062 130.136719 266.691406 134.746094 262.035156 139.679688 C 257.117188 144.367188 251.9375 149.3125 246.574219 154.425781 C 241.007812 159.316406 235.253906 164.371094 229.410156 169.507812 C 223.652344 174.1875 217.960938 179.113281 212.023438 183.753906 " fill-opacity="1" fill-rule="nonzero"/><path fill="#b4a500" d="M 107.554688 257.710938 C 107.554688 257.710938 95.476562 182.410156 154.257812 144.980469 C 178.011719 150.332031 198.453125 164.445312 212.023438 183.753906 C 211.726562 183.984375 211.429688 184.214844 211.132812 184.445312 C 204.894531 189.316406 198.773438 194.339844 192.460938 198.910156 C 189.34375 201.253906 186.253906 203.578125 183.199219 205.875 C 180.101562 208.113281 177.046875 210.328125 174.035156 212.503906 C 168.03125 216.882812 162.140625 220.988281 156.566406 224.914062 C 150.949219 228.78125 145.640625 232.441406 140.738281 235.816406 C 135.792969 239.140625 131.257812 242.183594 127.242188 244.886719 C 123.1875 247.539062 119.65625 249.859375 116.746094 251.765625 C 110.898438 255.550781 107.554688 257.710938 107.554688 257.710938 " fill-opacity="1" fill-rule="nonzero"/><path fill="#491414" d="M 215.691406 189.382812 C 214.535156 187.460938 213.304688 185.582031 212.023438 183.753906 C 217.960938 179.113281 223.652344 174.1875 229.410156 169.507812 C 235.253906 164.371094 241.007812 159.316406 246.574219 154.425781 C 251.9375 149.3125 257.117188 144.367188 262.035156 139.679688 C 266.691406 134.746094 271.164062 130.136719 275.308594 125.878906 C 279.183594 121.386719 282.742188 117.265625 285.894531 113.617188 C 289.207031 110.070312 291.449219 106.503906 293.578125 103.753906 C 297.71875 98.171875 300.179688 95.011719 300.179688 95.011719 C 300.179688 95.011719 298.234375 98.46875 294.660156 104.480469 C 292.796875 107.429688 290.855469 111.261719 287.882812 115.121094 C 285.046875 119.082031 281.863281 123.578125 278.234375 128.378906 C 274.371094 132.964844 270.167969 137.933594 265.648438 143.140625 C 260.964844 148.175781 255.890625 153.363281 250.621094 158.71875 C 245.136719 163.832031 239.535156 169.199219 233.628906 174.414062 C 227.703125 179.335938 221.835938 184.53125 215.691406 189.382812 " fill-opacity="1" fill-rule="nonzero"/><path fill="#d5c409" d="M 107.554688 257.710938 C 107.554688 257.710938 110.898438 255.550781 116.746094 251.765625 C 119.65625 249.859375 123.1875 247.539062 127.242188 244.886719 C 131.257812 242.183594 135.792969 239.140625 140.738281 235.816406 C 145.640625 232.441406 150.949219 228.78125 156.566406 224.914062 C 162.140625 220.988281 168.03125 216.882812 174.035156 212.503906 C 177.046875 210.328125 180.101562 208.113281 183.199219 205.875 C 186.253906 203.578125 189.34375 201.253906 192.460938 198.910156 C 198.773438 194.339844 204.894531 189.316406 211.132812 184.445312 C 211.429688 184.214844 211.726562 183.984375 212.023438 183.753906 C 213.304688 185.582031 214.535156 187.460938 215.691406 189.382812 C 215.5625 189.488281 215.429688 189.589844 215.300781 189.695312 C 208.953125 194.550781 202.71875 199.5625 196.304688 204.109375 C 189.992188 208.796875 183.617188 213.183594 177.398438 217.34375 C 171.253906 221.617188 165.089844 225.410156 159.304688 229.082031 C 153.53125 232.777344 147.898438 235.992188 142.769531 239.066406 C 132.414062 245.050781 123.582031 249.679688 117.394531 252.890625 C 111.195312 256.082031 107.554688 257.710938 107.554688 257.710938 " fill-opacity="1" fill-rule="nonzero"/></svg>